<svg width="80" height="107" viewBox="0 0 80 107" fill="none" xmlns="http://www.w3.org/2000/svg">
<path d="M24 0.799805H56C68.813 0.799805 79.2002 11.187 79.2002 24V56C79.2002 68.813 68.813 79.2002 56 79.2002H24C11.187 79.2002 0.799805 68.813 0.799805 56V24C0.799805 11.187 11.187 0.799805 24 0.799805Z" stroke="#F1F1F1" stroke-width="1.6"/>
<path d="M56 50.0466L44.404 29.9532L38.192 33.5359L47.7187 50.0466H56ZM44.9507 50.0466L37.292 36.7866L31.08 40.3692L36.6693 50.0466H44.9507ZM30.2107 43.6306L33.912 50.0466H25.6307L24 47.2132L30.2107 43.6306Z" fill="black"/>
<path d="M21.916 104.012H17.842L17.142 106H15.476L18.962 96.256H20.81L24.296 106H22.616L21.916 104.012ZM21.468 102.71L19.886 98.188L18.29 102.71H21.468ZM25.2797 102.108C25.2797 101.333 25.4384 100.647 25.7557 100.05C26.0824 99.4527 26.5211 98.9907 27.0717 98.664C27.6317 98.328 28.2524 98.16 28.9337 98.16C29.4377 98.16 29.9324 98.272 30.4177 98.496C30.9124 98.7107 31.3044 99 31.5937 99.364V95.64H33.2037V106H31.5937V104.838C31.3324 105.211 30.9684 105.519 30.5017 105.762C30.0444 106.005 29.5171 106.126 28.9197 106.126C28.2477 106.126 27.6317 105.958 27.0717 105.622C26.5211 105.277 26.0824 104.801 25.7557 104.194C25.4384 103.578 25.2797 102.883 25.2797 102.108ZM31.5937 102.136C31.5937 101.604 31.4817 101.142 31.2577 100.75C31.0431 100.358 30.7584 100.059 30.4037 99.854C30.0491 99.6487 29.6664 99.546 29.2557 99.546C28.8451 99.546 28.4624 99.6487 28.1077 99.854C27.7531 100.05 27.4637 100.344 27.2397 100.736C27.0251 101.119 26.9177 101.576 26.9177 102.108C26.9177 102.64 27.0251 103.107 27.2397 103.508C27.4637 103.909 27.7531 104.217 28.1077 104.432C28.4717 104.637 28.8544 104.74 29.2557 104.74C29.6664 104.74 30.0491 104.637 30.4037 104.432C30.7584 104.227 31.0431 103.928 31.2577 103.536C31.4817 103.135 31.5937 102.668 31.5937 102.136ZM36.112 97.264C35.8227 97.264 35.58 97.166 35.384 96.97C35.188 96.774 35.09 96.5313 35.09 96.242C35.09 95.9527 35.188 95.71 35.384 95.514C35.58 95.318 35.8227 95.22 36.112 95.22C36.392 95.22 36.63 95.318 36.826 95.514C37.022 95.71 37.12 95.9527 37.12 96.242C37.12 96.5313 37.022 96.774 36.826 96.97C36.63 97.166 36.392 97.264 36.112 97.264ZM36.896 98.286V106H35.3V98.286H36.896ZM38.4594 102.108C38.4594 101.333 38.6181 100.647 38.9354 100.05C39.2621 99.4527 39.7007 98.9907 40.2514 98.664C40.8114 98.328 41.4321 98.16 42.1134 98.16C42.6174 98.16 43.1121 98.272 43.5974 98.496C44.0921 98.7107 44.4841 99 44.7734 99.364V95.64H46.3834V106H44.7734V104.838C44.5121 105.211 44.1481 105.519 43.6814 105.762C43.2241 106.005 42.6967 106.126 42.0994 106.126C41.4274 106.126 40.8114 105.958 40.2514 105.622C39.7007 105.277 39.2621 104.801 38.9354 104.194C38.6181 103.578 38.4594 102.883 38.4594 102.108ZM44.7734 102.136C44.7734 101.604 44.6614 101.142 44.4374 100.75C44.2227 100.358 43.9381 100.059 43.5834 99.854C43.2287 99.6487 42.8461 99.546 42.4354 99.546C42.0247 99.546 41.6421 99.6487 41.2874 99.854C40.9327 100.05 40.6434 100.344 40.4194 100.736C40.2047 101.119 40.0974 101.576 40.0974 102.108C40.0974 102.64 40.2047 103.107 40.4194 103.508C40.6434 103.909 40.9327 104.217 41.2874 104.432C41.6514 104.637 42.0341 104.74 42.4354 104.74C42.8461 104.74 43.2287 104.637 43.5834 104.432C43.9381 104.227 44.2227 103.928 44.4374 103.536C44.6614 103.135 44.7734 102.668 44.7734 102.136ZM47.9477 102.108C47.9477 101.333 48.1064 100.647 48.4237 100.05C48.7504 99.4527 49.189 98.9907 49.7397 98.664C50.2997 98.328 50.9157 98.16 51.5877 98.16C52.1944 98.16 52.7217 98.2813 53.1697 98.524C53.627 98.7573 53.991 99.0513 54.2617 99.406V98.286H55.8717V106H54.2617V104.852C53.991 105.216 53.6224 105.519 53.1557 105.762C52.689 106.005 52.157 106.126 51.5597 106.126C50.897 106.126 50.2904 105.958 49.7397 105.622C49.189 105.277 48.7504 104.801 48.4237 104.194C48.1064 103.578 47.9477 102.883 47.9477 102.108ZM54.2617 102.136C54.2617 101.604 54.1497 101.142 53.9257 100.75C53.711 100.358 53.4264 100.059 53.0717 99.854C52.717 99.6487 52.3344 99.546 51.9237 99.546C51.513 99.546 51.1304 99.6487 50.7757 99.854C50.421 100.05 50.1317 100.344 49.9077 100.736C49.693 101.119 49.5857 101.576 49.5857 102.108C49.5857 102.64 49.693 103.107 49.9077 103.508C50.1317 103.909 50.421 104.217 50.7757 104.432C51.1397 104.637 51.5224 104.74 51.9237 104.74C52.3344 104.74 52.717 104.637 53.0717 104.432C53.4264 104.227 53.711 103.928 53.9257 103.536C54.1497 103.135 54.2617 102.668 54.2617 102.136ZM60.768 106.126C60.1613 106.126 59.6153 106.019 59.13 105.804C58.654 105.58 58.276 105.281 57.996 104.908C57.716 104.525 57.5666 104.101 57.548 103.634H59.2C59.228 103.961 59.382 104.236 59.662 104.46C59.9513 104.675 60.3106 104.782 60.74 104.782C61.188 104.782 61.5333 104.698 61.776 104.53C62.028 104.353 62.154 104.129 62.154 103.858C62.154 103.569 62.014 103.354 61.734 103.214C61.4633 103.074 61.0293 102.92 60.432 102.752C59.8533 102.593 59.382 102.439 59.018 102.29C58.654 102.141 58.3366 101.912 58.066 101.604C57.8046 101.296 57.674 100.89 57.674 100.386C57.674 99.9753 57.7953 99.602 58.038 99.266C58.2806 98.9207 58.626 98.65 59.074 98.454C59.5313 98.258 60.054 98.16 60.642 98.16C61.5193 98.16 62.224 98.384 62.756 98.832C63.2973 99.2707 63.5866 99.8727 63.624 100.638H62.028C62 100.293 61.86 100.017 61.608 99.812C61.356 99.6067 61.0153 99.504 60.586 99.504C60.166 99.504 59.844 99.5833 59.62 99.742C59.396 99.9007 59.284 100.111 59.284 100.372C59.284 100.577 59.3586 100.75 59.508 100.89C59.6573 101.03 59.8393 101.142 60.054 101.226C60.2686 101.301 60.586 101.399 61.006 101.52C61.566 101.669 62.0233 101.823 62.378 101.982C62.742 102.131 63.0546 102.355 63.316 102.654C63.5773 102.953 63.7126 103.349 63.722 103.844C63.722 104.283 63.6006 104.675 63.358 105.02C63.1153 105.365 62.77 105.636 62.322 105.832C61.8833 106.028 61.3653 106.126 60.768 106.126Z" fill="black"/>
</svg>
