<svg width="61" height="107" viewBox="0 0 61 107" fill="none" xmlns="http://www.w3.org/2000/svg">
<path d="M30 0.799805H62C74.813 0.799805 85.2002 11.187 85.2002 24V56C85.2002 68.813 74.813 79.2002 62 79.2002H30C17.187 79.2002 6.7998 68.813 6.7998 56V24C6.7998 11.187 17.187 0.799805 30 0.799805Z" stroke="#F1F1F1" stroke-width="1.6"/>
<g clip-path="url(#clip0_356_5321)">
<path d="M46.2253 37.7413L47.7067 35.1586L52.7387 34.836L52.9147 34.5213L48.264 34.1986L49.3573 32.3133H57.984C60.6373 32.3133 62.5973 33.2666 61.8333 36.0466C61.6067 36.8973 60.528 39.024 57.3587 39.912C58.0347 39.992 59.7053 40.7333 59.412 42.6546C58.9 46.0653 54.492 47.6866 52.0347 47.6866L41.8467 47.6946L41.34 45.7213L46.68 45.348L46.8627 45.032L41.068 44.68L40.4453 42.34L48.6827 41.856L48.8653 41.548L34.0707 40.624L34.7827 39.3906L50.7133 38.3573L50.8973 38.0493L46.2253 37.7413ZM52.892 38.2546L54.3587 38.2466C55.3427 38.24 56.3613 37.7933 56.736 36.8893C57.0813 36.0466 56.6187 35.328 56.0027 35.3346H54.58L52.892 38.2546ZM51.1987 41.1813L49.4307 44.2546H51.1173C51.9027 44.2546 53.304 43.8653 53.736 42.7506C54.1387 41.7093 53.3987 41.1813 52.8853 41.1813H51.1987ZM38.3467 45.9266L37.32 47.68L30 47.6933L30.712 46.4626L38.3467 45.9266ZM38.86 32.3053L44.7493 32.3133L45.1973 33.9773L38.1627 33.5373L38.86 32.3053ZM45.5267 35.2986L46.172 37.7413L36.116 37.0813L36.82 35.8546L45.5267 35.2986ZM40.4067 42.34L39.1307 44.5546L32.0373 44.152L32.7493 42.92L40.4067 42.34Z" fill="black"/>
</g>
<path d="M9.044 106H7.448L2.646 98.734V106H1.05V96.256H2.646L7.448 103.508V96.256H9.044V106ZM18.2098 101.954C18.2098 102.243 18.1912 102.505 18.1538 102.738H12.2598C12.3065 103.354 12.5352 103.849 12.9458 104.222C13.3565 104.595 13.8605 104.782 14.4578 104.782C15.3165 104.782 15.9232 104.423 16.2778 103.704H17.9998C17.7665 104.413 17.3418 104.997 16.7258 105.454C16.1192 105.902 15.3632 106.126 14.4578 106.126C13.7205 106.126 13.0578 105.963 12.4698 105.636C11.8912 105.3 11.4338 104.833 11.0978 104.236C10.7712 103.629 10.6078 102.929 10.6078 102.136C10.6078 101.343 10.7665 100.647 11.0838 100.05C11.4105 99.4433 11.8632 98.9767 12.4418 98.65C13.0298 98.3233 13.7018 98.16 14.4578 98.16C15.1858 98.16 15.8345 98.3187 16.4038 98.636C16.9732 98.9533 17.4165 99.4013 17.7338 99.98C18.0512 100.549 18.2098 101.207 18.2098 101.954ZM16.5438 101.45C16.5345 100.862 16.3245 100.391 15.9138 100.036C15.5032 99.6813 14.9945 99.504 14.3878 99.504C13.8372 99.504 13.3658 99.6813 12.9738 100.036C12.5818 100.381 12.3485 100.853 12.2738 101.45H16.5438ZM30.1405 98.286L27.7465 106H26.0665L24.5125 100.302L22.9585 106H21.2785L18.8705 98.286H20.4945L22.1045 104.488L23.7425 98.286H25.4085L26.9765 104.46L28.5725 98.286H30.1405ZM40.1779 101.002C40.7006 101.095 41.1439 101.371 41.5079 101.828C41.8719 102.285 42.0539 102.803 42.0539 103.382C42.0539 103.877 41.9233 104.325 41.6619 104.726C41.4099 105.118 41.0413 105.431 40.5559 105.664C40.0706 105.888 39.5059 106 38.8619 106H34.9699V96.27H38.6799C39.3426 96.27 39.9119 96.382 40.3879 96.606C40.8639 96.83 41.2233 97.1333 41.4659 97.516C41.7086 97.8893 41.8299 98.3093 41.8299 98.776C41.8299 99.336 41.6806 99.8027 41.3819 100.176C41.0833 100.549 40.6819 100.825 40.1779 101.002ZM36.5659 100.358H38.5399C39.0626 100.358 39.4686 100.241 39.7579 100.008C40.0566 99.7653 40.2059 99.42 40.2059 98.972C40.2059 98.5333 40.0566 98.1927 39.7579 97.95C39.4686 97.698 39.0626 97.572 38.5399 97.572H36.5659V100.358ZM38.7219 104.698C39.2633 104.698 39.6879 104.567 39.9959 104.306C40.3039 104.045 40.4579 103.681 40.4579 103.214C40.4579 102.738 40.2946 102.36 39.9679 102.08C39.6413 101.8 39.2073 101.66 38.6659 101.66H36.5659V104.698H38.7219ZM43.2563 102.108C43.2563 101.333 43.4149 100.647 43.7323 100.05C44.0589 99.4527 44.4976 98.9907 45.0483 98.664C45.6083 98.328 46.2243 98.16 46.8963 98.16C47.5029 98.16 48.0303 98.2813 48.4783 98.524C48.9356 98.7573 49.2996 99.0513 49.5703 99.406V98.286H51.1803V106H49.5703V104.852C49.2996 105.216 48.9309 105.519 48.4643 105.762C47.9976 106.005 47.4656 106.126 46.8683 106.126C46.2056 106.126 45.5989 105.958 45.0483 105.622C44.4976 105.277 44.0589 104.801 43.7323 104.194C43.4149 103.578 43.2563 102.883 43.2563 102.108ZM49.5703 102.136C49.5703 101.604 49.4583 101.142 49.2343 100.75C49.0196 100.358 48.7349 100.059 48.3803 99.854C48.0256 99.6487 47.6429 99.546 47.2323 99.546C46.8216 99.546 46.4389 99.6487 46.0843 99.854C45.7296 100.05 45.4403 100.344 45.2163 100.736C45.0016 101.119 44.8943 101.576 44.8943 102.108C44.8943 102.64 45.0016 103.107 45.2163 103.508C45.4403 103.909 45.7296 104.217 46.0843 104.432C46.4483 104.637 46.8309 104.74 47.2323 104.74C47.6429 104.74 48.0256 104.637 48.3803 104.432C48.7349 104.227 49.0196 103.928 49.2343 103.536C49.4583 103.135 49.5703 102.668 49.5703 102.136ZM54.8726 95.64V106H53.2766V95.64H54.8726ZM56.436 102.108C56.436 101.333 56.5946 100.647 56.912 100.05C57.2386 99.4527 57.6773 98.9907 58.228 98.664C58.788 98.328 59.404 98.16 60.076 98.16C60.6826 98.16 61.21 98.2813 61.658 98.524C62.1153 98.7573 62.4793 99.0513 62.75 99.406V98.286H64.36V106H62.75V104.852C62.4793 105.216 62.1106 105.519 61.644 105.762C61.1773 106.005 60.6453 106.126 60.048 106.126C59.3853 106.126 58.7786 105.958 58.228 105.622C57.6773 105.277 57.2386 104.801 56.912 104.194C56.5946 103.578 56.436 102.883 56.436 102.108ZM62.75 102.136C62.75 101.604 62.638 101.142 62.414 100.75C62.1993 100.358 61.9146 100.059 61.56 99.854C61.2053 99.6487 60.8226 99.546 60.412 99.546C60.0013 99.546 59.6186 99.6487 59.264 99.854C58.9093 100.05 58.62 100.344 58.396 100.736C58.1813 101.119 58.074 101.576 58.074 102.108C58.074 102.64 58.1813 103.107 58.396 103.508C58.62 103.909 58.9093 104.217 59.264 104.432C59.628 104.637 60.0106 104.74 60.412 104.74C60.8226 104.74 61.2053 104.637 61.56 104.432C61.9146 104.227 62.1993 103.928 62.414 103.536C62.638 103.135 62.75 102.668 62.75 102.136ZM70.3483 98.16C70.9549 98.16 71.4963 98.286 71.9723 98.538C72.4576 98.79 72.8356 99.1633 73.1063 99.658C73.3769 100.153 73.5123 100.75 73.5123 101.45V106H71.9303V101.688C71.9303 100.997 71.7576 100.47 71.4123 100.106C71.0669 99.7327 70.5956 99.546 69.9983 99.546C69.4009 99.546 68.9249 99.7327 68.5703 100.106C68.2249 100.47 68.0523 100.997 68.0523 101.688V106H66.4563V98.286H68.0523V99.168C68.3136 98.8507 68.6449 98.6033 69.0463 98.426C69.4569 98.2487 69.8909 98.16 70.3483 98.16ZM75.016 102.136C75.016 101.343 75.1747 100.647 75.492 100.05C75.8187 99.4433 76.2667 98.9767 76.836 98.65C77.4054 98.3233 78.0587 98.16 78.796 98.16C79.7294 98.16 80.4994 98.384 81.106 98.832C81.722 99.2707 82.1374 99.9007 82.352 100.722H80.63C80.49 100.339 80.266 100.041 79.958 99.826C79.65 99.6113 79.2627 99.504 78.796 99.504C78.1427 99.504 77.62 99.7373 77.228 100.204C76.8454 100.661 76.654 101.305 76.654 102.136C76.654 102.967 76.8454 103.615 77.228 104.082C77.62 104.549 78.1427 104.782 78.796 104.782C79.72 104.782 80.3314 104.376 80.63 103.564H82.352C82.128 104.348 81.708 104.973 81.092 105.44C80.476 105.897 79.7107 106.126 78.796 106.126C78.0587 106.126 77.4054 105.963 76.836 105.636C76.2667 105.3 75.8187 104.833 75.492 104.236C75.1747 103.629 75.016 102.929 75.016 102.136ZM91.0126 101.954C91.0126 102.243 90.9939 102.505 90.9566 102.738H85.0626C85.1092 103.354 85.3379 103.849 85.7486 104.222C86.1592 104.595 86.6632 104.782 87.2606 104.782C88.1192 104.782 88.7259 104.423 89.0806 103.704H90.8026C90.5692 104.413 90.1446 104.997 89.5286 105.454C88.9219 105.902 88.1659 106.126 87.2606 106.126C86.5232 106.126 85.8606 105.963 85.2726 105.636C84.6939 105.3 84.2366 104.833 83.9006 104.236C83.5739 103.629 83.4106 102.929 83.4106 102.136C83.4106 101.343 83.5692 100.647 83.8866 100.05C84.2132 99.4433 84.6659 98.9767 85.2446 98.65C85.8326 98.3233 86.5046 98.16 87.2606 98.16C87.9886 98.16 88.6372 98.3187 89.2066 98.636C89.7759 98.9533 90.2192 99.4013 90.5366 99.98C90.8539 100.549 91.0126 101.207 91.0126 101.954ZM89.3466 101.45C89.3372 100.862 89.1272 100.391 88.7166 100.036C88.3059 99.6813 87.7972 99.504 87.1906 99.504C86.6399 99.504 86.1686 99.6813 85.7766 100.036C85.3846 100.381 85.1512 100.853 85.0766 101.45H89.3466Z" fill="black"/>
<defs>
<clipPath id="clip0_356_5321">
<rect width="32" height="32" fill="white" transform="translate(30 24)"/>
</clipPath>
</defs>
</svg>
