<svg width="80" height="107" viewBox="0 0 80 107" fill="none" xmlns="http://www.w3.org/2000/svg">
<rect x="0.8" y="0.8" width="78.4" height="78.4" rx="23.2" stroke="#F1F1F1" stroke-width="1.6"/>
<g clip-path="url(#clip0_356_5306)">
<path d="M56.0003 34.4L32.5896 44.368C30.6483 45.1902 29.0181 45.6014 27.6989 45.6014C26.2056 45.6014 25.1225 45.0782 24.4496 44.032C24.0274 43.36 23.9029 42.5076 24.0763 41.4747C24.2505 40.4418 24.7109 39.3405 25.4576 38.1707C26.0798 37.224 27.1007 35.9796 28.5203 34.4374C28.0382 35.1953 27.6849 36.0279 27.4749 36.9014C27.1016 38.4942 27.4376 39.664 28.4829 40.4107C28.9807 40.7591 29.6652 40.9334 30.5363 40.9334C31.2323 40.9334 32.0163 40.8214 32.8883 40.5974L56.0003 34.4Z" fill="black"/>
</g>
<path d="M33.544 106H31.948L27.146 98.734V106H25.55V96.256H27.146L31.948 103.508V96.256H33.544V106ZM36.4518 97.264C36.1625 97.264 35.9198 97.166 35.7238 96.97C35.5278 96.774 35.4298 96.5313 35.4298 96.242C35.4298 95.9527 35.5278 95.71 35.7238 95.514C35.9198 95.318 36.1625 95.22 36.4518 95.22C36.7318 95.22 36.9698 95.318 37.1658 95.514C37.3618 95.71 37.4598 95.9527 37.4598 96.242C37.4598 96.5313 37.3618 96.774 37.1658 96.97C36.9698 97.166 36.7318 97.264 36.4518 97.264ZM37.2358 98.286V106H35.6398V98.286H37.2358ZM42.3833 102.15L45.9393 106H43.7833L40.9273 102.682V106H39.3313V95.64H40.9273V101.66L43.7273 98.286H45.9393L42.3833 102.15ZM54.1532 101.954C54.1532 102.243 54.1345 102.505 54.0972 102.738H48.2032C48.2499 103.354 48.4785 103.849 48.8892 104.222C49.2999 104.595 49.8039 104.782 50.4012 104.782C51.2599 104.782 51.8665 104.423 52.2212 103.704H53.9432C53.7099 104.413 53.2852 104.997 52.6692 105.454C52.0625 105.902 51.3065 106.126 50.4012 106.126C49.6639 106.126 49.0012 105.963 48.4132 105.636C47.8345 105.3 47.3772 104.833 47.0412 104.236C46.7145 103.629 46.5512 102.929 46.5512 102.136C46.5512 101.343 46.7099 100.647 47.0272 100.05C47.3539 99.4433 47.8065 98.9767 48.3852 98.65C48.9732 98.3233 49.6452 98.16 50.4012 98.16C51.1292 98.16 51.7779 98.3187 52.3472 98.636C52.9165 98.9533 53.3599 99.4013 53.6772 99.98C53.9945 100.549 54.1532 101.207 54.1532 101.954ZM52.4872 101.45C52.4779 100.862 52.2679 100.391 51.8572 100.036C51.4465 99.6813 50.9379 99.504 50.3312 99.504C49.7805 99.504 49.3092 99.6813 48.9172 100.036C48.5252 100.381 48.2919 100.853 48.2172 101.45H52.4872Z" fill="black"/>
<defs>
<clipPath id="clip0_356_5306">
<rect width="32" height="32" fill="white" transform="translate(24 24)"/>
</clipPath>
</defs>
</svg>
