<svg width="80" height="107" viewBox="0 0 80 107" fill="none" xmlns="http://www.w3.org/2000/svg">
<path d="M24 0.799805H56C68.813 0.799805 79.2002 11.187 79.2002 24V56C79.2002 68.813 68.813 79.2002 56 79.2002H24C11.187 79.2002 0.799805 68.813 0.799805 56V24C0.799805 11.187 11.187 0.799805 24 0.799805Z" stroke="#F1F1F1" stroke-width="1.6"/>
<path d="M55.7935 28.0106C55.2375 27.2999 54.2655 27.8693 53.8375 28.1173C50.7922 29.9119 50.3429 33.0719 49.2815 34.8866C48.4469 36.3399 47.0789 37.4066 45.8415 37.4893C44.9269 37.5546 43.9349 37.3773 42.9509 36.9493C40.5415 35.9079 39.2442 34.5599 38.9282 34.3226C38.2789 33.8293 33.2882 28.9693 29.2215 28.7706C29.2215 28.7706 28.7255 27.7706 28.6015 27.7533C28.3055 27.7199 28.0015 28.3546 27.7802 28.4213C27.5802 28.4919 27.2295 27.7386 27.0269 27.7719C26.8229 27.7986 26.6242 28.5533 26.2269 28.9413C25.9335 29.2253 25.5789 29.2079 25.3775 29.5586C25.3082 29.6866 25.3322 29.9119 25.2535 30.1186C25.0842 30.5453 24.5189 30.5906 24.5135 31.0479C24.5135 31.5559 24.9895 31.6533 25.4055 32.0079C25.7362 32.2906 25.7589 32.4906 26.1442 32.6226C26.4882 32.7399 26.9869 32.3733 27.4295 32.5053C27.7989 32.6133 28.1535 32.6919 28.2322 33.0693C28.3042 33.4106 28.2322 33.9466 27.7789 33.8866C27.6295 33.8666 26.9815 33.6546 26.1815 33.7399C25.2149 33.8426 24.1109 34.1519 24.0029 35.2199C23.9482 35.8159 24.6882 36.5133 25.4095 36.3746C25.9042 36.2799 25.6709 35.6999 25.9415 35.4199C26.2975 35.0599 28.3042 36.6786 30.1709 36.6786C30.9615 36.6786 31.5455 36.4786 32.1269 35.8719C32.1802 35.8333 32.2509 35.7359 32.3335 35.7253C32.4265 35.7485 32.5146 35.7882 32.5935 35.8426C34.1015 37.0386 35.2389 39.4426 40.7669 39.4706C41.5429 39.4799 42.4335 39.8426 43.1615 40.5066C43.8015 41.0839 44.1802 42.0066 44.5442 42.9399C45.1015 44.3439 46.0922 45.6986 47.6002 47.2106C47.6802 47.3013 48.9202 48.2506 49.0135 48.3213C49.0295 48.3346 49.1255 48.5439 49.0842 48.6613C49.0575 49.5813 48.9202 52.2213 50.9042 52.3319C51.3922 52.3586 51.2709 52.0239 51.2709 51.7853C51.2642 51.3306 51.1842 50.8719 51.4215 50.3986C51.7589 49.7613 50.7202 49.4533 50.7429 48.0573C50.7682 47.0119 49.8829 47.1893 49.4309 46.3906C49.1775 45.9333 48.9402 45.6813 48.9642 45.1293C49.0615 41.9559 48.2749 39.8653 47.8909 39.3599C47.5882 38.9679 47.3269 38.8226 47.6149 38.6399C49.2682 37.5533 49.6482 36.5413 49.6482 36.5413C50.5282 34.4866 51.3229 32.6146 52.4149 31.7813C52.6362 31.6213 53.2002 31.1946 53.5509 31.0346C54.5682 30.5519 55.1149 30.2639 55.4015 29.9839C55.8762 29.5346 56.2482 28.5799 55.7935 28.0106Z" fill="black"/>
<path d="M26.854 99.168C26.854 99.6627 26.7373 100.129 26.504 100.568C26.2707 101.007 25.8973 101.366 25.384 101.646C24.8707 101.917 24.2127 102.052 23.41 102.052H21.646V106H20.05V96.27H23.41C24.1567 96.27 24.7867 96.4007 25.3 96.662C25.8227 96.914 26.21 97.2593 26.462 97.698C26.7233 98.1367 26.854 98.6267 26.854 99.168ZM23.41 100.75C24.0167 100.75 24.4693 100.615 24.768 100.344C25.0667 100.064 25.216 99.672 25.216 99.168C25.216 98.104 24.614 97.572 23.41 97.572H21.646V100.75H23.41ZM35.3622 98.286V106H33.7662V105.09C33.5142 105.407 33.1828 105.659 32.7722 105.846C32.3708 106.023 31.9415 106.112 31.4842 106.112C30.8775 106.112 30.3315 105.986 29.8462 105.734C29.3702 105.482 28.9922 105.109 28.7122 104.614C28.4415 104.119 28.3062 103.522 28.3062 102.822V98.286H29.8882V102.584C29.8882 103.275 30.0608 103.807 30.4062 104.18C30.7515 104.544 31.2228 104.726 31.8202 104.726C32.4175 104.726 32.8888 104.544 33.2342 104.18C33.5888 103.807 33.7662 103.275 33.7662 102.584V98.286H35.3622ZM46.806 98.16C47.4126 98.16 47.954 98.286 48.43 98.538C48.9153 98.79 49.2933 99.1633 49.564 99.658C49.844 100.153 49.984 100.75 49.984 101.45V106H48.402V101.688C48.402 100.997 48.2293 100.47 47.884 100.106C47.5386 99.7327 47.0673 99.546 46.47 99.546C45.8726 99.546 45.3966 99.7327 45.042 100.106C44.6966 100.47 44.524 100.997 44.524 101.688V106H42.942V101.688C42.942 100.997 42.7693 100.47 42.424 100.106C42.0786 99.7327 41.6073 99.546 41.01 99.546C40.4126 99.546 39.9366 99.7327 39.582 100.106C39.2366 100.47 39.064 100.997 39.064 101.688V106H37.468V98.286H39.064V99.168C39.3253 98.8507 39.6566 98.6033 40.058 98.426C40.4593 98.2487 40.8886 98.16 41.346 98.16C41.962 98.16 42.5126 98.2907 42.998 98.552C43.4833 98.8133 43.8566 99.1913 44.118 99.686C44.3513 99.2193 44.7153 98.8507 45.21 98.58C45.7046 98.3 46.2366 98.16 46.806 98.16ZM51.4828 102.108C51.4828 101.333 51.6415 100.647 51.9588 100.05C52.2855 99.4527 52.7242 98.9907 53.2748 98.664C53.8348 98.328 54.4508 98.16 55.1228 98.16C55.7295 98.16 56.2568 98.2813 56.7048 98.524C57.1622 98.7573 57.5262 99.0513 57.7968 99.406V98.286H59.4068V106H57.7968V104.852C57.5262 105.216 57.1575 105.519 56.6908 105.762C56.2242 106.005 55.6922 106.126 55.0948 106.126C54.4322 106.126 53.8255 105.958 53.2748 105.622C52.7242 105.277 52.2855 104.801 51.9588 104.194C51.6415 103.578 51.4828 102.883 51.4828 102.108ZM57.7968 102.136C57.7968 101.604 57.6848 101.142 57.4608 100.75C57.2462 100.358 56.9615 100.059 56.6068 99.854C56.2522 99.6487 55.8695 99.546 55.4588 99.546C55.0482 99.546 54.6655 99.6487 54.3108 99.854C53.9562 100.05 53.6668 100.344 53.4428 100.736C53.2282 101.119 53.1208 101.576 53.1208 102.108C53.1208 102.64 53.2282 103.107 53.4428 103.508C53.6668 103.909 53.9562 104.217 54.3108 104.432C54.6748 104.637 55.0575 104.74 55.4588 104.74C55.8695 104.74 56.2522 104.637 56.6068 104.432C56.9615 104.227 57.2462 103.928 57.4608 103.536C57.6848 103.135 57.7968 102.668 57.7968 102.136Z" fill="black"/>
</svg>
